<svg fill="#000000" height="200px" width="200px" version="1.1" id="Layer_1"
  xmlns="http://www.w3.org/2000/svg" xmlns:xlink="http://www.w3.org/1999/xlink"
  viewBox="0 0 512 512" xml:space="preserve"><g id="SVGRepo_bgCarrier" stroke-width="0"></g><g id="SVGRepo_tracerCarrier" stroke-linecap="round" stroke-linejoin="round"></g><g id="SVGRepo_iconCarrier"> <g> <g> <path d="M449.417,209.311c0.096-1.78,0.144-3.562,0.144-5.344c0-55.086-44.816-99.902-99.902-99.902 c-4.11,0-8.201,0.251-12.254,0.748c-9.127-19.622-22.958-36.62-40.623-49.776c-22.752-16.943-49.808-25.898-78.245-25.898 c-72.301,0-131.122,58.821-131.122,131.122c0,2.997,0.102,5.993,0.306,8.98c-21.252,4.745-40.7,15.594-56.141,31.56 C11.214,221.858,0,249.593,0,278.894c0,61.972,50.418,112.39,112.39,112.39h8.362c-4.855,9.696-8.362,19.827-8.362,29.139 c0,34.429,28.01,62.439,62.439,62.439s62.439-28.01,62.439-62.439c0-9.312-3.507-19.442-8.362-29.138h31.277 c5.964,35.389,36.808,62.439,73.865,62.439s67.901-27.05,73.865-62.439h10.427c51.643,0,93.659-42.015,93.659-93.659 C512,257.477,486.128,222.3,449.417,209.311z M174.829,445.399c-13.772,0-24.976-11.204-24.976-24.976 c0-6.896,10.667-25.049,24.976-43.564c14.308,18.514,24.976,36.668,24.976,43.564 C199.805,434.195,188.601,445.399,174.829,445.399z M334.049,416.26c-20.657,0-37.463-16.806-37.463-37.463 c0-2.22,1.175-14.937,24.387-47.273c4.524-6.304,9.082-12.222,13.132-17.292c19.881,24.941,37.407,52.973,37.407,64.564 C371.512,399.454,354.706,416.26,334.049,416.26z M418.341,353.821h-15.007c-4.38-10.733-12.159-25.209-25.982-44.429 c-14.473-20.125-28.762-36.095-29.364-36.764l-13.94-15.536l-13.941,15.536c-0.601,0.671-14.891,16.64-29.364,36.764 c-13.821,19.22-21.603,33.696-25.982,44.429h-60.496c-8.323-10.733-15.129-18.346-15.495-18.754l-13.941-15.536l-13.941,15.536 c-0.366,0.408-7.173,8.021-15.495,18.754H112.39c-41.315,0-74.927-33.612-74.927-74.927c0-40.51,31.7-73.391,72.168-74.852 l22.613-0.817l-5.025-22.062c-1.553-6.818-2.341-13.85-2.341-20.902c0-51.643,42.015-93.659,93.659-93.659 c41.076,0,76.974,26.292,89.328,65.425l5.6,17.739l17.776-5.476c5.945-1.832,12.143-2.76,18.417-2.76 c34.429,0,62.439,28.01,62.439,62.439c0,5.025-0.612,10.061-1.818,14.967l-4.969,20.213l20.622,2.82 c27.71,3.785,48.605,27.714,48.605,55.657C474.537,328.612,449.327,353.821,418.341,353.821z"></path> </g> </g> </g></svg>
