<svg height="64px" width="64px" version="1.1" id="Capa_1" xmlns="http://www.w3.org/2000/svg"
  xmlns:xlink="http://www.w3.org/1999/xlink" viewBox="0 0 233.003 233.003" xml:space="preserve"
  fill="#000000">
  <g id="SVGRepo_bgCarrier" stroke-width="0"></g>
  <g id="SVGRepo_tracerCarrier" stroke-linecap="round" stroke-linejoin="round"></g>
  <g id="SVGRepo_iconCarrier">
    <g>
      <path style="fill:#000002;" d="M58.24,201.255H47.904c-2.761,0-5,2.238-5,5c0,2.762,2.239,5,5,5H58.24c2.761,0,5-2.238,5-5 C63.24,203.493,61.001,201.255,58.24,201.255z"></path>
      <path style="fill:#000002;" d="M210.503,3.755H42.513c-12.407,0-22.5,10.094-22.5,22.5v45.007H15.5c-8.547,0-15.5,6.953-15.5,15.5 v126.986c0,8.547,6.953,15.5,15.5,15.5h75.145c8.547,0,15.5-6.953,15.5-15.5v-11.167h54.529h22.167c4.142,0,7.5-3.357,7.5-7.5 c0-4.143-3.358-7.5-7.5-7.5h-22.167v-14.334h49.829c12.407,0,22.5-10.094,22.5-22.5V26.255 C233.003,13.849,222.91,3.755,210.503,3.755z M15.5,86.262h75.145c0.257,0,0.5,0.243,0.5,0.5v98.779H15V86.762 C15,86.505,15.243,86.262,15.5,86.262z M90.645,214.248H15.5c-0.257,0-0.5-0.243-0.5-0.5v-18.207h76.145v18.207 C91.145,214.005,90.901,214.248,90.645,214.248z M145.674,187.581h-38.333v-14.334h38.333V187.581z M218.003,150.747 c0,4.136-3.364,7.5-7.5,7.5H106.145V86.762c0-8.547-6.953-15.5-15.5-15.5H35.013V26.255c0-4.136,3.364-7.5,7.5-7.5h167.99 c4.136,0,7.5,3.364,7.5,7.5V150.747z"></path>
    </g> 
  </g>
</svg>