<?xml version="1.0" encoding="UTF-8"?>
<!DOCTYPE svg PUBLIC "-//W3C//DTD SVG 1.1//EN" "http://www.w3.org/Graphics/SVG/1.1/DTD/svg11.dtd">
<svg xmlns="http://www.w3.org/2000/svg" version="1.1" width="512px" height="512px" style="shape-rendering:geometricPrecision; text-rendering:geometricPrecision; image-rendering:optimizeQuality; fill-rule:evenodd; clip-rule:evenodd" xmlns:xlink="http://www.w3.org/1999/xlink">
<g><path style="opacity:0.935" fill="#fcd01f" d="M 251.5,-0.5 C 254.167,-0.5 256.833,-0.5 259.5,-0.5C 261.696,0.854084 263.196,2.85408 264,5.5C 264.667,30.1667 264.667,54.8333 264,79.5C 258.333,87.5 252.667,87.5 247,79.5C 246.333,54.8333 246.333,30.1667 247,5.5C 247.804,2.85408 249.304,0.854084 251.5,-0.5 Z"/></g>
<g><path style="opacity:0.949" fill="#fcd01f" d="M 72.5,67.5 C 75.6492,67.2114 78.6492,67.7114 81.5,69C 99.3333,86.8333 117.167,104.667 135,122.5C 138.02,130.127 135.52,134.793 127.5,136.5C 125.701,136.423 124.034,135.923 122.5,135C 104.667,117.167 86.8333,99.3333 69,81.5C 66.2645,75.7667 67.4311,71.1 72.5,67.5 Z"/></g>
<g><path style="opacity:0.949" fill="#fcd01f" d="M 431.5,67.5 C 441.57,67.3188 445.07,71.9855 442,81.5C 424.167,99.3333 406.333,117.167 388.5,135C 382.54,137.868 378.04,136.368 375,130.5C 374.245,127.697 374.578,125.03 376,122.5C 394.395,103.938 412.895,85.6044 431.5,67.5 Z"/></g>
<g><path style="opacity:0.992" fill="#fcd01f" d="M 254.5,109.5 C 321.619,112.79 367.786,145.457 393,207.5C 411.43,270.287 396.596,323.787 348.5,368C 297.733,405.55 243.733,410.883 186.5,384C 137.848,355.132 112.181,312.299 109.5,255.5C 112.27,197.766 138.604,154.599 188.5,126C 209.451,115.762 231.451,110.262 254.5,109.5 Z"/></g>
<g><path style="opacity:0.935" fill="#fcd01f" d="M -0.5,259.5 C -0.5,256.833 -0.5,254.167 -0.5,251.5C 0.854084,249.304 2.85408,247.804 5.5,247C 30.1667,246.333 54.8333,246.333 79.5,247C 87.5,252.667 87.5,258.333 79.5,264C 54.8333,264.667 30.1667,264.667 5.5,264C 2.85408,263.196 0.854084,261.696 -0.5,259.5 Z"/></g>
<g><path style="opacity:0.935" fill="#fcd01f" d="M 511.5,251.5 C 511.5,254.167 511.5,256.833 511.5,259.5C 510.146,261.696 508.146,263.196 505.5,264C 480.833,264.667 456.167,264.667 431.5,264C 423.5,258.333 423.5,252.667 431.5,247C 456.167,246.333 480.833,246.333 505.5,247C 508.146,247.804 510.146,249.304 511.5,251.5 Z"/></g>
<g><path style="opacity:0.949" fill="#fcd01f" d="M 124.5,374.5 C 134.375,374.529 137.875,379.196 135,388.5C 116.833,406.667 98.6667,424.833 80.5,443C 69.428,444.597 65.5947,440.097 69,429.5C 87.395,410.938 105.895,392.604 124.5,374.5 Z"/></g>
<g><path style="opacity:0.949" fill="#fcd01f" d="M 381.5,374.5 C 383.989,374.298 386.323,374.798 388.5,376C 406.333,393.833 424.167,411.667 442,429.5C 445.405,440.097 441.572,444.597 430.5,443C 412.333,424.833 394.167,406.667 376,388.5C 373.443,381.991 375.276,377.324 381.5,374.5 Z"/></g>
<g><path style="opacity:0.935" fill="#fcd01f" d="M 259.5,511.5 C 256.833,511.5 254.167,511.5 251.5,511.5C 249.304,510.146 247.804,508.146 247,505.5C 246.333,480.833 246.333,456.167 247,431.5C 252.667,423.5 258.333,423.5 264,431.5C 264.667,456.167 264.667,480.833 264,505.5C 263.196,508.146 261.696,510.146 259.5,511.5 Z"/></g>
</svg>
