<?xml version="1.0" encoding="UTF-8"?>
<!DOCTYPE svg PUBLIC "-//W3C//DTD SVG 1.1//EN" "http://www.w3.org/Graphics/SVG/1.1/DTD/svg11.dtd">
<svg xmlns="http://www.w3.org/2000/svg" version="1.1" width="512px" height="512px" style="shape-rendering:geometricPrecision; text-rendering:geometricPrecision; image-rendering:optimizeQuality; fill-rule:evenodd; clip-rule:evenodd" xmlns:xlink="http://www.w3.org/1999/xlink">
<g><path style="opacity:0.992" fill="#fbe665" d="M 244.5,-0.5 C 261.5,-0.5 278.5,-0.5 295.5,-0.5C 311.955,1.09416 328.288,4.09416 344.5,8.5C 267.507,42.0345 226.173,100.868 220.5,185C 223.566,256.509 255.566,310.509 316.5,347C 367.271,372.819 419.605,376.486 473.5,358C 483.644,353.257 493.644,348.59 503.5,344C 472.903,424.932 416.237,477.932 333.5,503C 318.562,506.931 303.562,509.764 288.5,511.5C 273.167,511.5 257.833,511.5 242.5,511.5C 155.613,501.489 89.1132,459.489 43,385.5C 4.5666,316.161 -2.10007,243.828 23,168.5C 54.3841,88.1155 111.217,34.9488 193.5,9C 210.401,4.51928 227.401,1.35262 244.5,-0.5 Z"/></g>
</svg>
