<?xml version="1.0" encoding="UTF-8"?>
<!DOCTYPE svg PUBLIC "-//W3C//DTD SVG 1.1//EN" "http://www.w3.org/Graphics/SVG/1.1/DTD/svg11.dtd">
<svg xmlns="http://www.w3.org/2000/svg" version="1.1" width="512px" height="512px" style="shape-rendering:geometricPrecision; text-rendering:geometricPrecision; image-rendering:optimizeQuality; fill-rule:evenodd; clip-rule:evenodd" xmlns:xlink="http://www.w3.org/1999/xlink">
<g><path style="opacity:0.921" fill="#fdcf20" d="M 298.5,-0.5 C 301.5,-0.5 304.5,-0.5 307.5,-0.5C 309.596,1.43331 311.096,3.76664 312,6.5C 312.667,19.1667 312.667,31.8333 312,44.5C 309.566,51.218 305.066,53.3847 298.5,51C 295.732,49.238 294.232,46.738 294,43.5C 293.076,30.1104 293.409,16.777 295,3.5C 296.376,2.29493 297.542,0.961599 298.5,-0.5 Z"/></g>
<g><path style="opacity:0.927" fill="#fcd01f" d="M 143.5,42.5 C 146.649,42.2114 149.649,42.7114 152.5,44C 164.667,56.1667 176.833,68.3333 189,80.5C 192.856,88.7532 190.356,93.7532 181.5,95.5C 179.701,95.423 178.034,94.923 176.5,94C 164,81.5 151.5,69 139,56.5C 136.214,50.414 137.714,45.7473 143.5,42.5 Z"/></g>
<g><path style="opacity:0.901" fill="#fcd01f" d="M 455.5,42.5 C 462.883,41.3427 467.217,44.3427 468.5,51.5C 468.153,54.5277 466.986,57.1944 465,59.5C 454.167,70.3333 443.333,81.1667 432.5,92C 425.99,97.2754 420.49,96.4421 416,89.5C 415.21,86.366 415.543,83.366 417,80.5C 429.728,67.6042 442.562,54.9375 455.5,42.5 Z"/></g>
<g><path style="opacity:0.992" fill="#fcd020" d="M 385.5,309.5 C 367.47,273.31 338.137,257.143 297.5,261C 291.472,262.232 285.639,264.065 280,266.5C 259.129,220.507 223.296,197.841 172.5,198.5C 177.318,152.572 199.318,117.739 238.5,94C 271.64,76.2926 306.306,72.6259 342.5,83C 394.608,101.782 424.774,138.615 433,193.5C 436.699,240.404 420.865,279.07 385.5,309.5 Z"/></g>
<g><path style="opacity:0.996" fill="#a3d3f6" d="M 172.5,198.5 C 223.296,197.841 259.129,220.507 280,266.5C 285.639,264.065 291.472,262.232 297.5,261C 338.137,257.143 367.47,273.31 385.5,309.5C 386.292,313.211 387.292,316.878 388.5,320.5C 431.139,315.578 464.639,330.578 489,365.5C 508.987,401.976 507.653,437.642 485,472.5C 468.716,494.062 447.216,507.062 420.5,511.5C 304.833,511.5 189.167,511.5 73.5,511.5C 32.5,503.167 7.83333,478.5 -0.5,437.5C -0.5,428.833 -0.5,420.167 -0.5,411.5C 9.62888,367.382 37.2956,342.382 82.5,336.5C 69.8183,293.727 79.1516,256.56 110.5,225C 128.226,209.474 148.893,200.641 172.5,198.5 Z"/></g>
<g><path style="opacity:0.955" fill="#fdd020" d="M 511.5,203.5 C 511.5,206.167 511.5,208.833 511.5,211.5C 510.354,213.475 508.687,214.975 506.5,216C 492.167,216.667 477.833,216.667 463.5,216C 456.686,209.445 457.353,203.778 465.5,199C 478.5,198.333 491.5,198.333 504.5,199C 507.233,199.904 509.567,201.404 511.5,203.5 Z"/></g>
</svg>
