<?xml version="1.0" encoding="UTF-8"?>
<!DOCTYPE svg PUBLIC "-//W3C//DTD SVG 1.1//EN" "http://www.w3.org/Graphics/SVG/1.1/DTD/svg11.dtd">
<svg xmlns="http://www.w3.org/2000/svg" version="1.1" width="512px" height="512px" style="shape-rendering:geometricPrecision; text-rendering:geometricPrecision; image-rendering:optimizeQuality; fill-rule:evenodd; clip-rule:evenodd" xmlns:xlink="http://www.w3.org/1999/xlink">
<g><path style="opacity:0.987" fill="#fbe566" d="M 352.5,-0.5 C 365.167,-0.5 377.833,-0.5 390.5,-0.5C 398.795,0.889372 407.128,2.72271 415.5,5C 363.5,29.1452 338.667,69.9785 341,127.5C 348.677,176.839 376.177,209.339 423.5,225C 454.696,233.406 484.029,229.24 511.5,212.5C 511.5,213.5 511.5,214.5 511.5,215.5C 490.394,269.595 451.394,302.928 394.5,315.5C 384.271,282.108 361.938,262.275 327.5,256C 312.689,254.163 298.522,256.33 285,262.5C 271.084,231.088 247.917,209.421 215.5,197.5C 215.5,196.833 215.167,196.5 214.5,196.5C 202.122,133.14 219.455,79.64 266.5,36C 291.683,15.5523 320.35,3.38562 352.5,-0.5 Z"/></g>
<g><path style="opacity:0.996" fill="#a3d4f6" d="M 214.5,196.5 C 215.167,196.5 215.5,196.833 215.5,197.5C 247.917,209.421 271.084,231.088 285,262.5C 298.522,256.33 312.689,254.163 327.5,256C 361.938,262.275 384.271,282.108 394.5,315.5C 394.484,317.484 395.484,318.484 397.5,318.5C 441.258,312.965 475.091,328.632 499,365.5C 505.493,377.179 509.66,389.513 511.5,402.5C 511.5,410.5 511.5,418.5 511.5,426.5C 502.273,473.393 474.273,501.727 427.5,511.5C 309.833,511.5 192.167,511.5 74.5,511.5C 32.7179,502.718 7.71786,477.385 -0.5,435.5C -0.5,427.5 -0.5,419.5 -0.5,411.5C 9.13886,365.368 37.4722,339.535 84.5,334C 71.1085,291.068 80.1085,253.568 111.5,221.5C 141.349,195.259 175.682,186.925 214.5,196.5 Z"/></g>
</svg>
