<?xml version="1.0" encoding="UTF-8"?>
<!DOCTYPE svg PUBLIC "-//W3C//DTD SVG 1.1//EN" "http://www.w3.org/Graphics/SVG/1.1/DTD/svg11.dtd">
<svg xmlns="http://www.w3.org/2000/svg" version="1.1" width="512px" height="512px" style="shape-rendering:geometricPrecision; text-rendering:geometricPrecision; image-rendering:optimizeQuality; fill-rule:evenodd; clip-rule:evenodd" xmlns:xlink="http://www.w3.org/1999/xlink">
<g><path style="opacity:0.993" fill="#a3d4f6" d="M 511.5,304.5 C 511.5,313.5 511.5,322.5 511.5,331.5C 501.559,379.605 472.225,407.438 423.5,415C 306.141,415.986 188.808,415.653 71.5,414C 31.6714,404.34 7.67139,379.507 -0.5,339.5C -0.5,330.833 -0.5,322.167 -0.5,313.5C 9.64033,268.064 37.9737,242.897 84.5,238C 70.0427,189.712 82.0427,149.379 120.5,117C 151.3,95.5763 184.634,90.5763 220.5,102C 250.938,114.105 272.438,135.272 285,165.5C 322.606,151.402 354.606,159.402 381,189.5C 387.976,198.787 392.809,209.121 395.5,220.5C 433.089,216.081 464.589,227.748 490,255.5C 501.545,269.989 508.712,286.322 511.5,304.5 Z"/></g>
</svg>
