<?xml version="1.0" encoding="UTF-8"?>
<!DOCTYPE svg PUBLIC "-//W3C//DTD SVG 1.1//EN" "http://www.w3.org/Graphics/SVG/1.1/DTD/svg11.dtd">
<svg xmlns="http://www.w3.org/2000/svg" version="1.1" width="512px" height="512px" style="shape-rendering:geometricPrecision; text-rendering:geometricPrecision; image-rendering:optimizeQuality; fill-rule:evenodd; clip-rule:evenodd" xmlns:xlink="http://www.w3.org/1999/xlink">
<g><path style="opacity:0.989" fill="#60a2d7" d="M 511.5,260.5 C 511.5,269.5 511.5,278.5 511.5,287.5C 509.596,297.88 506.262,307.88 501.5,317.5C 477.219,277.197 441.552,260.197 394.5,266.5C 388.577,239.407 372.911,220.24 347.5,209C 326.743,201.522 306.076,201.688 285.5,209.5C 284.833,209.167 284.167,208.833 283.5,208.5C 264.412,165.775 231.412,143.108 184.5,140.5C 140.14,142.387 107.973,163.054 88,202.5C 76.7438,228.715 75.5771,255.382 84.5,282.5C 52.5275,285.188 27.8609,299.855 10.5,326.5C 5.01652,316.711 1.34985,306.377 -0.5,295.5C -0.5,286.833 -0.5,278.167 -0.5,269.5C 9.31993,224.518 37.1533,199.185 83,193.5C 70.4624,147.472 81.6291,108.306 116.5,76C 159.227,45.0479 202.894,43.7146 247.5,72C 264.574,85.0691 277.074,101.569 285,121.5C 315.936,108.954 344.436,113.12 370.5,134C 382.813,145.788 391.146,159.955 395.5,176.5C 437.42,171.518 470.92,185.852 496,219.5C 504.031,232.204 509.198,245.871 511.5,260.5 Z"/></g>
<g><path style="opacity:0.997" fill="#a2d3f6" d="M 501.5,317.5 C 506.07,327.541 509.404,337.875 511.5,348.5C 511.5,357.5 511.5,366.5 511.5,375.5C 501.809,422.689 473.142,450.523 425.5,459C 307.141,459.987 188.808,459.653 70.5,458C 31.2268,447.896 7.5601,423.063 -0.5,383.5C -0.5,374.833 -0.5,366.167 -0.5,357.5C 1.74835,346.76 5.41502,336.427 10.5,326.5C 27.8609,299.855 52.5275,285.188 84.5,282.5C 75.5771,255.382 76.7438,228.715 88,202.5C 107.973,163.054 140.14,142.387 184.5,140.5C 231.412,143.108 264.412,165.775 283.5,208.5C 284.167,208.833 284.833,209.167 285.5,209.5C 306.076,201.688 326.743,201.522 347.5,209C 372.911,220.24 388.577,239.407 394.5,266.5C 441.552,260.197 477.219,277.197 501.5,317.5 Z"/></g>
</svg>
