<?xml version="1.0" encoding="UTF-8"?>
<!DOCTYPE svg PUBLIC "-//W3C//DTD SVG 1.1//EN" "http://www.w3.org/Graphics/SVG/1.1/DTD/svg11.dtd">
<svg xmlns="http://www.w3.org/2000/svg" version="1.1" width="512px" height="512px" style="shape-rendering:geometricPrecision; text-rendering:geometricPrecision; image-rendering:optimizeQuality; fill-rule:evenodd; clip-rule:evenodd" xmlns:xlink="http://www.w3.org/1999/xlink">
<g><path style="opacity:0.993" fill="#cfd9d8" d="M 511.5,260.5 C 511.5,269.167 511.5,277.833 511.5,286.5C 502.878,332.623 475.545,360.456 429.5,370C 406.859,371.371 384.192,371.871 361.5,371.5C 353.734,353.302 344.901,335.636 335,318.5C 325.263,335.976 316.097,353.643 307.5,371.5C 264.167,371.5 220.833,371.5 177.5,371.5C 171.449,359.735 165.116,348.069 158.5,336.5C 151.569,348.031 144.902,359.698 138.5,371.5C 116.47,371.894 94.4704,371.394 72.5,370C 32.0851,360.753 7.75177,335.92 -0.5,295.5C -0.5,286.833 -0.5,278.167 -0.5,269.5C 9.31993,224.518 37.1533,199.185 83,193.5C 70.4624,147.472 81.6291,108.306 116.5,76C 159.225,45.0244 202.892,43.6911 247.5,72C 264.574,85.0691 277.074,101.569 285,121.5C 322.636,107.159 354.636,115.159 381,145.5C 387.976,154.787 392.809,165.121 395.5,176.5C 433.198,171.787 464.698,183.454 490,211.5C 501.153,226.139 508.319,242.472 511.5,260.5 Z"/></g>
<g><path style="opacity:1" fill="#60a2d7" d="M 245.5,230.5 C 247.074,230.937 248.241,231.937 249,233.5C 261.814,256.124 272.147,279.791 280,304.5C 285.31,324.944 278.81,340.11 260.5,350C 239.748,356.699 224.248,350.532 214,331.5C 211.055,322.97 210.721,314.304 213,305.5C 216.541,292.418 221.208,279.751 227,267.5C 233.193,255.114 239.36,242.78 245.5,230.5 Z"/></g>
<g><path style="opacity:0.981" fill="#60a2d7" d="M 361.5,371.5 C 367.981,384.772 370.814,398.772 370,413.5C 363.307,434.838 348.807,444.004 326.5,441C 305.598,434.052 296.764,419.552 300,397.5C 302.195,388.718 304.695,380.051 307.5,371.5C 316.097,353.643 325.263,335.976 335,318.5C 344.901,335.636 353.734,353.302 361.5,371.5 Z"/></g>
<g><path style="opacity:0.977" fill="#60a2d7" d="M 177.5,371.5 C 185.57,388.045 191.237,405.378 194.5,423.5C 189.757,452.376 173.091,463.542 144.5,457C 125.913,447.315 119.08,432.148 124,411.5C 128.152,397.875 132.985,384.542 138.5,371.5C 144.902,359.698 151.569,348.031 158.5,336.5C 165.116,348.069 171.449,359.735 177.5,371.5 Z"/></g>
</svg>
