<?xml version="1.0" encoding="UTF-8"?>
<!DOCTYPE svg PUBLIC "-//W3C//DTD SVG 1.1//EN" "http://www.w3.org/Graphics/SVG/1.1/DTD/svg11.dtd">
<svg xmlns="http://www.w3.org/2000/svg" version="1.1" width="512px" height="512px" style="shape-rendering:geometricPrecision; text-rendering:geometricPrecision; image-rendering:optimizeQuality; fill-rule:evenodd; clip-rule:evenodd" xmlns:xlink="http://www.w3.org/1999/xlink">
<g><path style="opacity:0.953" fill="#fdd020" d="M 317.5,16.5 C 322.384,15.8606 326.217,17.5273 329,21.5C 329.667,29.8333 329.667,38.1667 329,46.5C 325.291,52.3021 320.458,53.4688 314.5,50C 313.299,49.0975 312.465,47.9308 312,46.5C 311.333,38.5 311.333,30.5 312,22.5C 313.36,19.9774 315.193,17.9774 317.5,16.5 Z"/></g>
<g><path style="opacity:0.917" fill="#fcd01f" d="M 457.5,59.5 C 467.24,60.3107 470.407,65.3107 467,74.5C 460.5,81 454,87.5 447.5,94C 436.194,97.025 431.694,92.8583 434,81.5C 441.452,73.5415 449.285,66.2082 457.5,59.5 Z"/></g>
<g><path style="opacity:0.99" fill="#fcd020" d="M 440.5,238.5 C 419.58,228.318 397.58,224.985 374.5,228.5C 367.928,202.091 351.928,183.924 326.5,174C 307.495,167.355 288.828,168.188 270.5,176.5C 266.586,169.004 262.42,161.671 258,154.5C 251.799,147.355 245.632,140.355 239.5,133.5C 271.06,86.2461 314.726,69.0794 370.5,82C 409.068,94.9018 434.568,120.735 447,159.5C 454.086,186.634 451.919,212.967 440.5,238.5 Z"/></g>
<g><path style="opacity:0.995" fill="#a3d3f6" d="M 239.5,133.5 C 245.632,140.355 251.799,147.355 258,154.5C 262.42,161.671 266.586,169.004 270.5,176.5C 288.828,168.188 307.495,167.355 326.5,174C 351.928,183.924 367.928,202.091 374.5,228.5C 397.58,224.985 419.58,228.318 440.5,238.5C 474.613,260.066 489.447,291.066 485,331.5C 476.27,374.231 450.436,399.397 407.5,407C 387.169,407.5 366.836,407.667 346.5,407.5C 338.847,389.859 330.347,372.525 321,355.5C 311.34,372.489 302.506,389.822 294.5,407.5C 254.5,407.5 214.5,407.5 174.5,407.5C 168.231,396.352 162.064,385.018 156,373.5C 149.551,384.735 143.384,396.069 137.5,407.5C 114.831,407.667 92.1642,407.5 69.5,407C 31.4382,399.104 8.10483,376.271 -0.5,338.5C -0.5,330.167 -0.5,321.833 -0.5,313.5C 9.20355,270.305 36.2036,246.805 80.5,243C 68.1481,201.386 77.8147,165.719 109.5,136C 152.27,104.401 195.603,103.568 239.5,133.5 Z"/></g>
<g><path style="opacity:0.921" fill="#fcd01f" d="M 511.5,186.5 C 511.5,189.167 511.5,191.833 511.5,194.5C 510.354,196.475 508.687,197.975 506.5,199C 498.167,199.667 489.833,199.667 481.5,199C 474.833,193.333 474.833,187.667 481.5,182C 489.833,181.333 498.167,181.333 506.5,182C 508.687,183.025 510.354,184.525 511.5,186.5 Z"/></g>
<g><path style="opacity:1" fill="#60a2d7" d="M 233.5,269.5 C 247.26,291.36 258.093,314.694 266,339.5C 271.59,355.158 268.756,368.991 257.5,381C 245.961,389.85 233.294,391.85 219.5,387C 203.787,378.072 197.287,364.572 200,346.5C 207.886,319.396 219.053,293.729 233.5,269.5 Z"/></g>
<g><path style="opacity:0.98" fill="#60a2d7" d="M 346.5,407.5 C 352.981,420.772 355.814,434.772 355,449.5C 348.285,470.947 333.785,479.78 311.5,476C 292.272,469.399 283.772,455.899 286,435.5C 288.138,425.921 290.972,416.588 294.5,407.5C 302.506,389.822 311.34,372.489 321,355.5C 330.347,372.525 338.847,389.859 346.5,407.5 Z"/></g>
<g><path style="opacity:0.977" fill="#60a2d7" d="M 174.5,407.5 C 181.142,421.255 186.308,435.588 190,450.5C 193.184,470.979 185.351,485.146 166.5,493C 145.1,497.385 130.267,489.552 122,469.5C 120.065,462.493 120.065,455.493 122,448.5C 125.695,434.243 130.862,420.577 137.5,407.5C 143.384,396.069 149.551,384.735 156,373.5C 162.064,385.018 168.231,396.352 174.5,407.5 Z"/></g>
</svg>
