<?xml version="1.0" encoding="UTF-8"?>
<!DOCTYPE svg PUBLIC "-//W3C//DTD SVG 1.1//EN" "http://www.w3.org/Graphics/SVG/1.1/DTD/svg11.dtd">
<svg xmlns="http://www.w3.org/2000/svg" version="1.1" width="512px" height="512px" style="shape-rendering:geometricPrecision; text-rendering:geometricPrecision; image-rendering:optimizeQuality; fill-rule:evenodd; clip-rule:evenodd" xmlns:xlink="http://www.w3.org/1999/xlink">
<g><path style="opacity:0.98" fill="#fbe566" d="M 511.5,180.5 C 511.5,181.5 511.5,182.5 511.5,183.5C 502.563,206.726 487.897,225.393 467.5,239.5C 452.009,225.923 434.009,217.423 413.5,214C 402.778,213.692 392.111,213.525 381.5,213.5C 368.397,174.264 341.063,154.598 299.5,154.5C 295.971,105.144 314.638,66.9775 355.5,40C 383.621,25.1549 412.954,21.9882 443.5,30.5C 410.079,46.4335 392.412,72.9335 390.5,110C 393.361,151.521 414.695,178.187 454.5,190C 474.783,194.108 493.783,190.941 511.5,180.5 Z"/></g>
<g><path style="opacity:0.994" fill="#a2d3f6" d="M 299.5,154.5 C 341.063,154.598 368.397,174.264 381.5,213.5C 392.111,213.525 402.778,213.692 413.5,214C 434.009,217.423 452.009,225.923 467.5,239.5C 493.838,268.689 500.672,302.022 488,339.5C 472.738,374.082 446.238,393.248 408.5,397C 390.17,397.5 371.836,397.667 353.5,397.5C 344.903,379.643 335.737,361.976 326,344.5C 316.593,361.98 307.76,379.646 299.5,397.5C 258.833,397.5 218.167,397.5 177.5,397.5C 171.449,385.735 165.116,374.069 158.5,362.5C 151.884,374.069 145.551,385.735 139.5,397.5C 118.497,397.667 97.4974,397.5 76.5,397C 34.3515,391.346 8.68484,367.846 -0.5,326.5C -0.5,318.167 -0.5,309.833 -0.5,301.5C 6.48839,267.341 26.4884,244.507 59.5,233C 66.8264,231.428 74.1598,230.095 81.5,229C 68.779,183.495 80.779,145.828 117.5,116C 147.162,95.8576 179.162,91.191 213.5,102C 242.541,113.042 263.041,132.875 275,161.5C 282.935,157.978 291.102,155.645 299.5,154.5 Z"/></g>
<g><path style="opacity:1" fill="#60a2d7" d="M 237.5,256.5 C 252.356,280.202 263.856,305.535 272,332.5C 276.087,351.954 269.587,366.454 252.5,376C 222.971,383.569 206.304,372.236 202.5,342C 204.704,328.684 208.537,315.851 214,303.5C 221.319,287.528 229.153,271.861 237.5,256.5 Z"/></g>
<g><path style="opacity:0.981" fill="#60a2d7" d="M 353.5,397.5 C 356.305,406.051 358.805,414.718 361,423.5C 363.167,454.667 348.667,469.167 317.5,467C 297.708,460.266 288.875,446.432 291,425.5C 292.91,415.856 295.743,406.523 299.5,397.5C 307.76,379.646 316.593,361.98 326,344.5C 335.737,361.976 344.903,379.643 353.5,397.5 Z"/></g>
<g><path style="opacity:0.977" fill="#60a2d7" d="M 177.5,397.5 C 185.859,413.745 191.526,430.912 194.5,449C 192.688,471.311 180.688,483.478 158.5,485.5C 136.546,483.546 124.546,471.546 122.5,449.5C 125.37,431.223 131.037,413.89 139.5,397.5C 145.551,385.735 151.884,374.069 158.5,362.5C 165.116,374.069 171.449,385.735 177.5,397.5 Z"/></g>
</svg>
