<?xml version="1.0" encoding="UTF-8"?>
<!DOCTYPE svg PUBLIC "-//W3C//DTD SVG 1.1//EN" "http://www.w3.org/Graphics/SVG/1.1/DTD/svg11.dtd">
<svg xmlns="http://www.w3.org/2000/svg" version="1.1" width="512px" height="512px" style="shape-rendering:geometricPrecision; text-rendering:geometricPrecision; image-rendering:optimizeQuality; fill-rule:evenodd; clip-rule:evenodd" xmlns:xlink="http://www.w3.org/1999/xlink">
<g><path style="opacity:0.993" fill="#a3d3f6" d="M 511.5,251.5 C 511.5,260.167 511.5,268.833 511.5,277.5C 501.762,327.067 471.762,355.234 421.5,362C 399.169,362.5 376.836,362.667 354.5,362.5C 348.028,350.896 341.528,339.229 335,327.5C 328.472,339.229 321.972,350.896 315.5,362.5C 292.833,362.5 270.167,362.5 247.5,362.5C 258.474,345.184 269.474,327.851 280.5,310.5C 281.043,310.44 281.376,310.107 281.5,309.5C 258.176,308.5 234.843,308.167 211.5,308.5C 216.845,285.434 222.512,262.434 228.5,239.5C 204.843,238.5 181.176,238.167 157.5,238.5C 145.963,273.778 134.63,309.111 123.5,344.5C 149.833,344.5 176.167,344.5 202.5,344.5C 201.035,350.495 199.702,356.495 198.5,362.5C 158.499,362.667 118.499,362.5 78.5,362C 35.0073,354.672 8.674,329.505 -0.5,286.5C -0.5,277.833 -0.5,269.167 -0.5,260.5C 9.64333,215.063 37.9767,189.896 84.5,185C 70.0427,136.712 82.0427,96.3787 120.5,64C 153.99,41.2012 189.657,37.2012 227.5,52C 254.537,64.7033 273.704,84.87 285,112.5C 322.611,98.4187 354.611,106.419 381,136.5C 387.976,145.787 392.809,156.121 395.5,167.5C 439.816,162.914 474.316,178.914 499,215.5C 504.898,227.032 509.065,239.032 511.5,251.5 Z"/></g>
<g><path style="opacity:1" fill="#b6f8fd" d="M 329.5,220.5 C 348.942,219.796 362.109,228.463 369,246.5C 372.307,273.189 360.641,288.189 334,291.5C 307.96,287.107 296.96,271.774 301,245.5C 306.32,232.343 315.82,224.01 329.5,220.5 Z"/></g>
<g><path style="opacity:0.99" fill="#fea754" d="M 211.5,308.5 C 234.5,309.167 257.5,309.833 280.5,310.5C 269.474,327.851 258.474,345.184 247.5,362.5C 224.556,397.951 201.389,433.284 178,468.5C 183.873,433.002 190.707,397.669 198.5,362.5C 199.702,356.495 201.035,350.495 202.5,344.5C 176.167,344.5 149.833,344.5 123.5,344.5C 134.63,309.111 145.963,273.778 157.5,238.5C 181.176,238.167 204.843,238.5 228.5,239.5C 222.512,262.434 216.845,285.434 211.5,308.5 Z"/></g>
<g><path style="opacity:1" fill="#d1bca4" d="M 211.5,308.5 C 234.843,308.167 258.176,308.5 281.5,309.5C 281.376,310.107 281.043,310.44 280.5,310.5C 257.5,309.833 234.5,309.167 211.5,308.5 Z"/></g>
<g><path style="opacity:0.977" fill="#60a2d7" d="M 354.5,362.5 C 360.161,375.498 364.995,388.831 369,402.5C 374.054,426.235 365.221,442.069 342.5,450C 321.241,452.457 307.074,443.624 300,423.5C 299.199,416.111 299.533,408.777 301,401.5C 304.952,388.14 309.786,375.14 315.5,362.5C 321.972,350.896 328.472,339.229 335,327.5C 341.528,339.229 348.028,350.896 354.5,362.5 Z"/></g>
</svg>
