<?xml version="1.0" encoding="UTF-8"?>
<!DOCTYPE svg PUBLIC "-//W3C//DTD SVG 1.1//EN" "http://www.w3.org/Graphics/SVG/1.1/DTD/svg11.dtd">
<svg xmlns="http://www.w3.org/2000/svg" version="1.1" width="512px" height="512px" style="shape-rendering:geometricPrecision; text-rendering:geometricPrecision; image-rendering:optimizeQuality; fill-rule:evenodd; clip-rule:evenodd" xmlns:xlink="http://www.w3.org/1999/xlink">
<g><path style="opacity:0.993" fill="#a3d4f7" d="M 511.5,260.5 C 511.5,269.167 511.5,277.833 511.5,286.5C 502.878,332.623 475.545,360.456 429.5,370C 408.86,371.356 388.193,371.856 367.5,371.5C 363.897,369.237 360.564,366.57 357.5,363.5C 362.167,362.833 366.833,362.167 371.5,361.5C 378.58,359.121 380.413,354.455 377,347.5C 376.097,346.299 374.931,345.465 373.5,345C 367.833,344.667 362.167,344.333 356.5,344C 360.333,340.167 364.167,336.333 368,332.5C 371.573,322.412 368.073,317.912 357.5,319C 352.699,322.799 348.199,326.966 344,331.5C 343.917,325.058 343.251,318.725 342,312.5C 336.643,308.213 331.643,308.547 327,313.5C 326.667,319.5 326.333,325.5 326,331.5C 321.801,326.966 317.301,322.799 312.5,319C 302.107,317.326 298.274,321.492 301,331.5C 305.167,335.667 309.333,339.833 313.5,344C 307.5,344.333 301.5,344.667 295.5,345C 288.983,350.29 288.983,355.624 295.5,361C 301.5,361.333 307.5,361.667 313.5,362C 310.236,365.773 306.57,368.94 302.5,371.5C 264.5,371.5 226.5,371.5 188.5,371.5C 195.042,365.588 195.042,359.754 188.5,354C 185.366,353.21 182.366,353.543 179.5,355C 175.667,358.833 171.833,362.667 168,366.5C 167.667,361.5 167.333,356.5 167,351.5C 164.777,345.75 160.61,343.584 154.5,345C 153,346.5 151.5,348 150,349.5C 149.667,355.167 149.333,360.833 149,366.5C 144.801,361.966 140.301,357.799 135.5,354C 128.398,352.208 124.398,354.875 123.5,362C 123.899,365.623 125.232,368.79 127.5,371.5C 109.135,371.869 90.8019,371.369 72.5,370C 32.0851,360.753 7.75177,335.92 -0.5,295.5C -0.5,286.833 -0.5,278.167 -0.5,269.5C 9.31993,224.518 37.1533,199.185 83,193.5C 70.4624,147.472 81.6291,108.306 116.5,76C 159.225,45.0244 202.892,43.6911 247.5,72C 264.574,85.0691 277.074,101.569 285,121.5C 322.636,107.159 354.636,115.159 381,145.5C 387.976,154.787 392.809,165.121 395.5,176.5C 433.198,171.787 464.698,183.454 490,211.5C 501.153,226.139 508.319,242.472 511.5,260.5 Z"/></g>
<g><path style="opacity:1" fill="#b6f8fd" d="M 230.5,282.5 C 251.464,280.88 265.297,289.88 272,309.5C 273.676,340.157 259.176,354.324 228.5,352C 209.443,344.729 200.943,330.896 203,310.5C 207.016,295.985 216.183,286.652 230.5,282.5 Z"/></g>
<g><path style="opacity:0.98" fill="#b6f8fd" d="M 371.5,361.5 C 366.456,361.173 361.456,361.506 356.5,362.5C 356.624,363.107 356.957,363.44 357.5,363.5C 360.564,366.57 363.897,369.237 367.5,371.5C 371.994,377.689 371.328,383.189 365.5,388C 362.833,388.667 360.167,388.667 357.5,388C 353.033,384.535 348.867,380.702 345,376.5C 344.79,382.231 344.124,387.897 343,393.5C 337.593,398.765 332.26,398.765 327,393.5C 325.814,387.915 325.148,382.249 325,376.5C 320.483,382.196 314.983,386.529 308.5,389.5C 298.494,386.139 296.494,380.139 302.5,371.5C 306.57,368.94 310.236,365.773 313.5,362C 307.5,361.667 301.5,361.333 295.5,361C 288.983,355.624 288.983,350.29 295.5,345C 301.5,344.667 307.5,344.333 313.5,344C 309.333,339.833 305.167,335.667 301,331.5C 298.274,321.492 302.107,317.326 312.5,319C 317.301,322.799 321.801,326.966 326,331.5C 326.333,325.5 326.667,319.5 327,313.5C 331.643,308.547 336.643,308.213 342,312.5C 343.251,318.725 343.917,325.058 344,331.5C 348.199,326.966 352.699,322.799 357.5,319C 368.073,317.912 371.573,322.412 368,332.5C 364.167,336.333 360.333,340.167 356.5,344C 362.167,344.333 367.833,344.667 373.5,345C 374.931,345.465 376.097,346.299 377,347.5C 380.413,354.455 378.58,359.121 371.5,361.5 Z"/></g>
<g><path style="opacity:0.964" fill="#b6f8fd" d="M 188.5,371.5 C 186.372,374.13 184.039,376.63 181.5,379C 186.833,379.333 192.167,379.667 197.5,380C 201.084,381.664 202.751,384.497 202.5,388.5C 202.751,392.503 201.084,395.336 197.5,397C 192.167,397.333 186.833,397.667 181.5,398C 185.702,401.867 189.535,406.033 193,410.5C 195.313,418.344 192.479,423.011 184.5,424.5C 178.017,421.529 172.517,417.196 168,411.5C 167.667,416.833 167.333,422.167 167,427.5C 161.745,434.963 156.078,435.296 150,428.5C 148.894,423.231 148.227,417.897 148,412.5C 144.088,417.083 139.588,420.917 134.5,424C 124.118,424.274 120.618,419.44 124,409.5C 127.833,405.667 131.667,401.833 135.5,398C 129.833,397.667 124.167,397.333 118.5,397C 111.833,391.333 111.833,385.667 118.5,380C 124.167,379.667 129.833,379.333 135.5,379C 132.964,376.295 130.297,373.795 127.5,371.5C 125.232,368.79 123.899,365.623 123.5,362C 124.398,354.875 128.398,352.208 135.5,354C 140.301,357.799 144.801,361.966 149,366.5C 149.333,360.833 149.667,355.167 150,349.5C 151.5,348 153,346.5 154.5,345C 160.61,343.584 164.777,345.75 167,351.5C 167.333,356.5 167.667,361.5 168,366.5C 171.833,362.667 175.667,358.833 179.5,355C 182.366,353.543 185.366,353.21 188.5,354C 195.042,359.754 195.042,365.588 188.5,371.5 Z"/></g>
<g><path style="opacity:1" fill="#ace5fa" d="M 371.5,361.5 C 366.833,362.167 362.167,362.833 357.5,363.5C 356.957,363.44 356.624,363.107 356.5,362.5C 361.456,361.506 366.456,361.173 371.5,361.5 Z"/></g>
<g><path style="opacity:0.967" fill="#b7f9fd" d="M 254.5,387.5 C 276.929,389.429 289.263,401.596 291.5,424C 289.154,446.014 276.987,457.847 255,459.5C 233.191,457.691 221.358,445.858 219.5,424C 221.572,402.431 233.239,390.264 254.5,387.5 Z"/></g>
</svg>
