<?xml version="1.0" encoding="UTF-8"?>
<!DOCTYPE svg PUBLIC "-//W3C//DTD SVG 1.1//EN" "http://www.w3.org/Graphics/SVG/1.1/DTD/svg11.dtd">
<svg xmlns="http://www.w3.org/2000/svg" version="1.1" width="512px" height="512px" style="shape-rendering:geometricPrecision; text-rendering:geometricPrecision; image-rendering:optimizeQuality; fill-rule:evenodd; clip-rule:evenodd" xmlns:xlink="http://www.w3.org/1999/xlink">
<g><path style="opacity:0.941" fill="#60a2d7" d="M 511.5,165.5 C 511.5,168.5 511.5,171.5 511.5,174.5C 509.86,176.955 507.527,178.455 504.5,179C 491.07,179.108 477.736,180.274 464.5,182.5C 447.904,186.649 431.237,190.482 414.5,194C 391.164,197.311 367.831,197.311 344.5,194C 324.793,189.823 305.127,185.49 285.5,181C 265.5,179 245.5,179 225.5,181C 203.332,186.459 180.998,191.125 158.5,195C 134.019,197.535 109.686,196.535 85.5,192C 69.643,187.702 53.643,184.036 37.5,181C 27.1907,179.985 16.8574,179.319 6.5,179C 3.47322,178.455 1.13988,176.955 -0.5,174.5C -0.5,171.5 -0.5,168.5 -0.5,165.5C 1.01027,164.164 2.67694,162.997 4.5,162C 22.3463,160.885 40.013,162.218 57.5,166C 92.3862,177.768 128.053,181.102 164.5,176C 178.648,173.296 192.648,169.963 206.5,166C 233.342,161.251 260.342,160.251 287.5,163C 305.344,166.211 323.011,170.211 340.5,175C 364.115,179.183 387.782,179.517 411.5,176C 426.747,172.897 441.913,169.397 457,165.5C 473.336,161.993 489.836,160.827 506.5,162C 508.323,162.997 509.99,164.164 511.5,165.5 Z"/></g>
<g><path style="opacity:0.94" fill="#60a2d7" d="M 511.5,217.5 C 511.5,220.167 511.5,222.833 511.5,225.5C 510.146,227.696 508.146,229.196 505.5,230C 492.075,230.175 478.742,231.342 465.5,233.5C 448.909,237.648 432.242,241.481 415.5,245C 393.873,247.855 372.206,248.188 350.5,246C 328.131,241.545 305.798,236.878 283.5,232C 264.833,230 246.167,230 227.5,232C 205.202,236.878 182.869,241.545 160.5,246C 135.016,248.654 109.682,247.654 84.5,243C 58.797,234.792 32.4637,230.459 5.5,230C 2.85408,229.196 0.854084,227.696 -0.5,225.5C -0.5,222.833 -0.5,220.167 -0.5,217.5C 0.646381,215.525 2.31305,214.025 4.5,213C 21.9977,212.083 39.331,213.416 56.5,217C 106.825,233.666 157.159,233.666 207.5,217C 233.346,212.304 259.346,211.304 285.5,214C 305.638,217.701 325.638,222.034 345.5,227C 367.833,230.333 390.167,230.333 412.5,227C 428.567,223.65 444.567,219.983 460.5,216C 475.708,213.012 491.042,212.012 506.5,213C 508.687,214.025 510.354,215.525 511.5,217.5 Z"/></g>
<g><path style="opacity:0.94" fill="#60a2d7" d="M 511.5,268.5 C 511.5,271.167 511.5,273.833 511.5,276.5C 510.354,278.475 508.687,279.975 506.5,281C 494.109,281.301 481.776,282.301 469.5,284C 451.874,288.156 434.207,292.156 416.5,296C 377.027,301.919 338.36,298.586 300.5,286C 273.584,280.69 246.584,280.19 219.5,284.5C 200.601,289.141 181.601,293.308 162.5,297C 136.014,299.704 109.68,298.704 83.5,294C 57.8018,285.794 31.4685,281.46 4.5,281C 2.31305,279.975 0.646381,278.475 -0.5,276.5C -0.5,273.833 -0.5,271.167 -0.5,268.5C 0.854084,266.304 2.85408,264.804 5.5,264C 20.2751,263.277 34.9418,264.277 49.5,267C 67.359,271.631 85.359,275.631 103.5,279C 122.5,281 141.5,281 160.5,279C 176.633,275.967 192.633,272.3 208.5,268C 233.349,263.377 258.349,262.377 283.5,265C 305.932,269.191 328.265,273.858 350.5,279C 369.5,281 388.5,281 407.5,279C 425.641,275.631 443.641,271.631 461.5,267C 476.058,264.277 490.725,263.277 505.5,264C 508.146,264.804 510.146,266.304 511.5,268.5 Z"/></g>
<g><path style="opacity:0.94" fill="#60a2d7" d="M 511.5,319.5 C 511.5,322.5 511.5,325.5 511.5,328.5C 509.99,329.836 508.323,331.003 506.5,332C 494.488,332.867 482.488,333.867 470.5,335C 450.926,339.747 431.259,344.08 411.5,348C 389.833,350 368.167,350 346.5,348C 328.732,344.475 311.065,340.475 293.5,336C 268.165,331.372 242.832,331.372 217.5,336C 199.935,340.475 182.268,344.475 164.5,348C 137.011,350.745 109.678,349.745 82.5,345C 57.1245,336.925 31.1245,332.592 4.5,332C 2.67694,331.003 1.01027,329.836 -0.5,328.5C -0.5,325.5 -0.5,322.5 -0.5,319.5C 1.43331,317.404 3.76664,315.904 6.5,315C 24.0222,314.585 41.3555,316.252 58.5,320C 92.4073,331.124 127.074,334.457 162.5,330C 181.833,325.667 201.167,321.333 220.5,317C 243.503,313.697 266.503,313.697 289.5,317C 309.204,321.176 328.871,325.509 348.5,330C 383.926,334.457 418.593,331.124 452.5,320C 469.645,316.252 486.978,314.585 504.5,315C 507.233,315.904 509.567,317.404 511.5,319.5 Z"/></g>
</svg>
